<svg width="12.000000" height="24.000000" viewBox="0 0 12 24" fill="none" xmlns="http://www.w3.org/2000/svg" xmlns:xlink="http://www.w3.org/1999/xlink">
	<desc>
			Created with Pixso.
	</desc>
	<defs/>
	<path id="$" d="M10.44 14.72Q10.69 14.13 10.69 13.43Q10.69 12.3 10.14 11.59Q10.12 11.57 10.1 11.55Q9.83 11.22 9.51 10.97Q9.12 10.67 8.66 10.48Q7.81 10.12 6.51 9.81L6.51 6.18Q7.16 6.25 7.77 6.43Q8.63 6.68 9.43 7.15L10.16 5.33Q9.44 4.86 8.48 4.58Q8.04 4.44 7.59 4.36Q7.06 4.26 6.51 4.23L6.51 2.23L5.04 2.23L5.04 4.27Q3.02 4.47 1.95 5.49Q1.41 6.02 1.14 6.67Q0.9 7.27 0.9 7.98Q0.9 9.13 1.46 9.84Q1.47 9.85 1.47 9.86Q1.72 10.17 2.03 10.41Q2.42 10.73 2.9 10.94Q3.76 11.31 5.04 11.61L5.04 15.21Q4.4 15.16 3.8 15Q3.42 14.9 3.05 14.75Q2.1 14.38 1.44 13.84L0.62 15.66Q1.33 16.27 2.51 16.67Q3.7 17.07 5.04 17.16L5.04 19.16L6.51 19.16L6.51 17.14Q8.55 16.92 9.61 15.91Q10.17 15.38 10.44 14.72ZM3.34 8.41Q3.22 8.17 3.22 7.87Q3.22 7.54 3.34 7.27Q3.45 7.02 3.66 6.81Q4.12 6.37 5.04 6.23L5.04 9.44Q4.15 9.18 3.68 8.82Q3.45 8.64 3.34 8.41ZM7.92 14.62Q7.47 15.04 6.51 15.18L6.51 11.99Q7.41 12.24 7.9 12.61Q8.14 12.8 8.26 13.05Q8.38 13.29 8.38 13.59Q8.38 13.88 8.28 14.13Q8.17 14.4 7.92 14.62Z" fill="#EE685F" fill-opacity="1.000000" fill-rule="evenodd"/>
	<line id="Line 1" x1="0.000000" y1="23.000000" x2="12.000000" y2="23.000000" stroke="#EE685F" stroke-opacity="1.000000" stroke-width="2.000000" stroke-dasharray="3.000000,3.000000"/>
</svg>
