<svg width="158.206818" height="30.203125" viewBox="0 0 158.207 30.2031" fill="none" xmlns="http://www.w3.org/2000/svg" xmlns:xlink="http://www.w3.org/1999/xlink">
	<desc>
			Created with Pixso.
	</desc>
	<defs/>
	<path id="Your.logo" d="M13.85 23.74L13.85 15.8L22.55 1.34L17.46 1.34L11.48 11.29L5.5 1.34L0 1.34L8.67 15.74L8.67 23.74L13.85 23.74ZM25.99 22.98Q28.07 24 30.64 24Q33.32 24 35.44 22.9Q35.47 22.88 35.51 22.86Q36.84 22.16 37.81 21.12Q38.41 20.48 38.87 19.71Q39.13 19.27 39.34 18.82Q40.09 17.14 40.09 15.13Q40.09 13.12 39.34 11.44Q39.13 10.98 38.87 10.55Q38.4 9.77 37.79 9.12Q36.83 8.09 35.51 7.4Q35.47 7.38 35.44 7.36Q33.32 6.27 30.64 6.27Q28.07 6.27 25.99 7.29Q25.87 7.34 25.76 7.4Q24.43 8.1 23.46 9.13Q22.85 9.78 22.39 10.55Q22.14 10.97 21.94 11.4Q21.18 13.09 21.18 15.13Q21.18 17.16 21.94 18.85Q22.14 19.29 22.39 19.71Q22.85 20.47 23.44 21.1Q24.42 22.15 25.76 22.86Q25.87 22.92 25.99 22.98ZM70.73 8.13Q70.42 8.44 70.17 8.79L70.17 6.52L65.4 6.52L65.4 23.74L70.39 23.74L70.39 15.61Q70.39 13.22 71.59 12.03Q71.6 12.02 71.6 12.01Q71.77 11.85 71.95 11.71Q73.12 10.81 74.97 10.81Q75.25 10.81 76.09 10.87L76.09 6.27Q74.1 6.27 72.58 6.91Q71.5 7.36 70.73 8.13ZM60.76 23.74L60.76 6.52L55.77 6.52L55.77 15.03Q55.77 17.34 54.67 18.51Q54.33 18.88 53.91 19.14Q53.02 19.67 51.8 19.67Q50.36 19.67 49.52 18.97Q48.32 17.96 48.32 15.51L48.32 6.52L43.32 6.52L43.32 16.25Q43.32 19.96 45.17 21.9Q45.24 21.97 45.31 22.04Q45.66 22.39 46.05 22.67Q47.89 24 50.68 24Q52.12 24 53.38 23.52Q53.52 23.46 53.66 23.4Q54.36 23.1 54.97 22.66Q55.54 22.23 56.03 21.69L56.03 23.74L60.76 23.74ZM32.76 19.4Q31.83 19.89 30.64 19.89Q29.49 19.89 28.57 19.42Q27.97 19.11 27.48 18.6Q27.26 18.37 27.07 18.11Q26.23 16.92 26.23 15.13Q26.23 13.36 27.06 12.17Q27.25 11.9 27.48 11.66Q27.98 11.14 28.59 10.83Q29.5 10.36 30.64 10.36Q31.82 10.36 32.74 10.85Q33.32 11.16 33.8 11.66Q34.01 11.88 34.18 12.13Q35.04 13.32 35.04 15.13Q35.04 16.95 34.17 18.15Q34 18.39 33.8 18.6Q33.33 19.1 32.76 19.4Z" fill="#2A90D9" fill-opacity="1.000000" fill-rule="evenodd"/>
	<path id="Your.logo" d="M92.57 0L87.58 0L87.58 23.74L92.57 23.74L92.57 0ZM100.74 22.98Q102.82 24 105.4 24Q108.07 24 110.19 22.9Q110.23 22.88 110.26 22.86Q111.59 22.16 112.56 21.12Q113.16 20.48 113.62 19.71Q113.89 19.27 114.09 18.82Q114.84 17.14 114.84 15.13Q114.84 13.12 114.09 11.44Q113.89 10.98 113.62 10.55Q113.15 9.77 112.54 9.12Q111.58 8.09 110.26 7.4Q110.23 7.38 110.19 7.36Q108.07 6.27 105.4 6.27Q102.82 6.27 100.74 7.29Q100.63 7.34 100.51 7.4Q99.19 8.1 98.21 9.13Q97.61 9.78 97.14 10.55Q96.89 10.97 96.69 11.4Q95.93 13.09 95.93 15.13Q95.93 17.16 96.69 18.85Q96.89 19.29 97.14 19.71Q97.6 20.47 98.19 21.1Q99.17 22.15 100.51 22.86Q100.63 22.92 100.74 22.98ZM135.93 20.85L135.93 6.52L131.19 6.52L131.19 8.73Q130.65 8.05 129.97 7.56Q128.2 6.27 125.5 6.27Q123.69 6.27 122.12 6.87Q121.63 7.06 121.16 7.31Q120.15 7.84 119.35 8.61Q118.6 9.32 118.04 10.24Q117.89 10.48 117.76 10.74Q116.89 12.44 116.89 14.59Q116.89 16.69 117.73 18.37Q117.87 18.66 118.04 18.94Q118.58 19.82 119.29 20.52Q120.11 21.31 121.16 21.87Q121.63 22.12 122.12 22.31Q123.69 22.91 125.5 22.91Q128.17 22.91 129.94 21.65Q130.48 21.26 130.94 20.76L130.94 21.5Q130.94 23.76 129.8 24.93Q129.75 24.98 129.7 25.03Q128.47 26.2 125.88 26.2Q124.22 26.2 122.55 25.67Q120.89 25.14 119.8 24.25L117.82 27.83Q119.29 28.99 121.53 29.59Q123.77 30.2 126.26 30.2Q131 30.2 133.46 27.89Q133.56 27.8 133.65 27.71Q135.93 25.41 135.93 20.85ZM144.1 22.98Q146.18 24 148.76 24Q151.43 24 153.55 22.9Q153.59 22.88 153.62 22.86Q154.95 22.16 155.92 21.12Q156.52 20.48 156.98 19.71Q157.25 19.27 157.45 18.82Q158.2 17.14 158.2 15.13Q158.2 13.12 157.45 11.44Q157.25 10.98 156.98 10.55Q156.51 9.77 155.9 9.12Q154.94 8.09 153.62 7.4Q153.59 7.38 153.55 7.36Q151.43 6.27 148.76 6.27Q146.18 6.27 144.1 7.29Q143.99 7.34 143.87 7.4Q142.55 8.1 141.57 9.13Q140.97 9.78 140.5 10.55Q140.25 10.97 140.05 11.4Q139.29 13.09 139.29 15.13Q139.29 17.16 140.05 18.85Q140.25 19.29 140.5 19.71Q140.96 20.47 141.55 21.1Q142.53 22.15 143.87 22.86Q143.99 22.92 144.1 22.98ZM107.51 19.4Q106.59 19.89 105.4 19.89Q104.24 19.89 103.33 19.42Q102.73 19.11 102.23 18.6Q102.01 18.37 101.83 18.11Q100.98 16.92 100.98 15.13Q100.98 13.36 101.82 12.17Q102 11.9 102.23 11.66Q102.73 11.14 103.34 10.83Q104.25 10.36 105.4 10.36Q106.58 10.36 107.5 10.85Q108.08 11.16 108.55 11.66Q108.76 11.88 108.94 12.13Q109.79 13.32 109.79 15.13Q109.79 16.95 108.93 18.15Q108.76 18.39 108.55 18.6Q108.08 19.1 107.51 19.4ZM129.1 18.12Q128.01 18.81 126.49 18.81Q124.99 18.81 123.9 18.15Q123.54 17.93 123.22 17.64Q122.74 17.2 122.44 16.66Q121.94 15.76 121.94 14.59Q121.94 13.39 122.46 12.49Q122.75 11.96 123.22 11.53Q123.55 11.24 123.92 11.02Q125.01 10.36 126.49 10.36Q127.99 10.36 129.08 11.04Q129.43 11.25 129.73 11.53Q130.18 11.95 130.47 12.45Q131 13.37 131 14.59Q131 15.78 130.49 16.69Q130.19 17.22 129.73 17.64Q129.44 17.92 129.1 18.12ZM150.87 19.4Q149.95 19.89 148.76 19.89Q147.6 19.89 146.69 19.42Q146.09 19.11 145.59 18.6Q145.37 18.37 145.19 18.11Q144.34 16.92 144.34 15.13Q144.34 13.36 145.17 12.17Q145.36 11.9 145.59 11.66Q146.09 11.14 146.7 10.83Q147.61 10.36 148.76 10.36Q149.94 10.36 150.86 10.85Q151.44 11.16 151.91 11.66Q152.12 11.88 152.3 12.13Q153.15 13.32 153.15 15.13Q153.15 16.95 152.28 18.15Q152.12 18.39 151.91 18.6Q151.44 19.1 150.87 19.4ZM79.75 23.72Q80.35 24 81.08 24Q81.82 24 82.43 23.71Q82.9 23.49 83.29 23.1Q83.65 22.73 83.87 22.3Q84.19 21.65 84.19 20.85Q84.19 19.93 83.78 19.25Q83.58 18.91 83.29 18.64Q82.94 18.31 82.53 18.1Q81.89 17.78 81.08 17.78Q80.29 17.78 79.64 18.1Q79.23 18.3 78.87 18.64Q78.58 18.91 78.38 19.25Q77.97 19.93 77.97 20.85Q77.97 21.65 78.29 22.3Q78.51 22.73 78.87 23.1Q79.27 23.5 79.75 23.72Z" fill="#EE685F" fill-opacity="1.000000" fill-rule="evenodd"/>
</svg>
